HIERARCHY
ROOT Hips
{
  OFFSET 2.26061 22.2878 23.7974
  CHANNELS 6 Xposition Yposition Zposition Zrotation Xrotation Yrotation
  JOINT LeftUpLeg
  {
    OFFSET 8.64259 1.95398 -2.38835
    CHANNELS 3 Zrotation Xrotation Yrotation
    JOINT LeftLeg
    {
      OFFSET 43.7702 0 0
      CHANNELS 3 Zrotation Xrotation Yrotation
      JOINT LeftFoot
      {
        OFFSET 40.6238 0 0
        CHANNELS 3 Zrotation Xrotation Yrotation
        JOINT LeftToeBase
        {
          OFFSET 12.7242 0 0
          CHANNELS 3 Zrotation Xrotation Yrotation
          End Site
          {
            OFFSET 0 0 0
          }
        }
      }
    }
  }
  JOINT RightUpLeg
  {
    OFFSET -8.2249 1.95398 -2.59336
    CHANNELS 3 Zrotation Xrotation Yrotation
    JOINT RightLeg
    {
      OFFSET 43.5653 0 0
      CHANNELS 3 Zrotation Xrotation Yrotation
      JOINT RightFoot
      {
        OFFSET 40.6238 0 0
        CHANNELS 3 Zrotation Xrotation Yrotation
        JOINT RightToeBase
        {
          OFFSET 12.7242 0 0
          CHANNELS 3 Zrotation Xrotation Yrotation
          End Site
          {
            OFFSET 0 0 0
          }
        }
      }
    }
  }
  JOINT Spine
  {
    OFFSET 0.165834 0.87714 6.61349
    CHANNELS 3 Zrotation Xrotation Yrotation
    JOINT Spine1
    {
      OFFSET 7.38963 1.71661e-005 0
      CHANNELS 3 Zrotation Xrotation Yrotation
      JOINT Spine2
      {
        OFFSET 11.9445 1.14441e-005 0
        CHANNELS 3 Zrotation Xrotation Yrotation
        JOINT Spine3
        {
          OFFSET 14.7254 4.19617e-005 0
          CHANNELS 3 Zrotation Xrotation Yrotation
          JOINT Spine4
          {
            OFFSET 10.9679 0 0
            CHANNELS 3 Zrotation Xrotation Yrotation
            JOINT RightShoulder
            {
              OFFSET 2.46616 -1.6653 3.69651
              CHANNELS 3 Zrotation Xrotation Yrotation
              JOINT RightArm
              {
                OFFSET 13.0012 0 0
                CHANNELS 3 Zrotation Xrotation Yrotation
                JOINT RightForeArm
                {
                  OFFSET 28.7848 1.52588e-005 0
                  CHANNELS 3 Zrotation Xrotation Yrotation
                  JOINT RightHand
                  {
                    OFFSET 26.5688 1.52588e-005 0
                    CHANNELS 3 Zrotation Xrotation Yrotation
                    End Site
                    {
                      OFFSET 0 0 0
                    }
                  }
                }
              }
            }
            JOINT LeftShoulder
            {
              OFFSET 2.38034 -1.29275 -3.7523
              CHANNELS 3 Zrotation Xrotation Yrotation
              JOINT LeftArm
              {
                OFFSET 16.3182 6.10351e-005 0
                CHANNELS 3 Zrotation Xrotation Yrotation
                JOINT LeftForeArm
                {
                  OFFSET 27.0901 0 0
                  CHANNELS 3 Zrotation Xrotation Yrotation
                  JOINT LeftHand
                  {
                    OFFSET 24.5451 1.52588e-005 0
                    CHANNELS 3 Zrotation Xrotation Yrotation
                    End Site
                    {
                      OFFSET 0 0 0
                    }
                  }
                }
              }
            }
            JOINT Neck
            {
              OFFSET 5.0226 -0.0266342 0
              CHANNELS 3 Zrotation Xrotation Yrotation
              JOINT Head
              {
                OFFSET 6.69363 2.86102e-005 0
                CHANNELS 3 Zrotation Xrotation Yrotation
                End Site
                {
                  OFFSET 0 0 0
                }
              }
            }
          }
        }
      }
    }
  }
}
MOTION
Frames:	9
Frame Time:	0.0416667
18.1945 92.7945 1.27888 -86.2873 -22.589 -90.4597 -168.553 -0.0859148 95.6801 -21.1943 -5.7623 0.450796 61.7935 0.55453 4.7871 45.422 13.9885 7.0709 175.251 29.8022 89.8994 -15.6457 2.42719 -0.462383 62.3681 -2.25788 -1.25344 36.1115 0.367657 -4.59453 -0.979216 7.5852 -89.7115 11.7105 -1.81258 0.765289 0.0405704 -1.77715 0.844332 -22.5045 -1.95876 0.184965 -2.49187 -1.95874 0.184962 94.2676 -56.1311 -93.3678 17.9544 -4.31031 12.8705 -13.5421 -29.415 -44.4718 -2.42554 -0.710922 4.54174 -104.04 -50.4339 58.3976 -15.9184 5.61116 4.9981 1.57054 0.744693 -39.7072 16.1117 0.903184 1.7313 4.23821 -4.80944 1.22918 -1.15347 -5.05915 -5.20514 
12.5135 91.497 2.67068 -86.9928 -19.8941 -90.7172 -167.358 -2.79487 97.5146 -24.9897 -4.28903 0.532943 60.4797 -0.473757 1.88204 47.3943 16.3913 10.7976 176.322 34.4013 90.9319 -30.8618 -0.113561 -0.9935 62.6776 -2.56222 -1.44586 35.2348 0.355366 -5.16663 -1.05772 7.76661 -89.8969 11.3466 -2.05659 0.41267 -0.322859 -2.03646 0.502821 -22.8711 -2.08548 -0.224761 -2.85842 -2.08551 -0.224778 94.2317 -56.0237 -93.4341 17.802 -3.21099 12.6874 -13.7721 -30.1103 -43.3205 -3.84237 -0.805044 4.87679 -105.611 -51.3814 56.5947 -14.3193 5.34155 4.12788 2.67014 2.04835 -40.2249 14.9005 1.03318 3.02924 6.99664 -3.59144 2.63428 -2.59208 -4.0396 -3.96337 
4.40642 91.169 3.40735 -85.3306 -18.4 -89.2477 -166.265 -2.06132 101.542 -29.1595 0.800923 1.10641 50.7536 -5.97623 -3.28098 46.2212 16.6141 18.2842 177.268 35.3517 93.7197 -38.9817 0.659888 -1.36226 66.2287 -3.44886 -1.8552 29.6453 0.224006 -2.92154 -1.28076 7.53473 -90.0777 11.8079 -2.58349 0.119735 0.139469 -2.57572 0.233396 -22.4153 -2.49994 -0.662737 -2.40262 -2.49995 -0.662738 94.651 -56.5867 -92.7575 18.1093 -3.24946 12.1603 -13.4204 -30.7348 -42.4845 -3.59535 -0.811881 5.22391 -105.631 -51.8211 56.7571 -14.4658 6.0258 5.05168 0.931236 0.779919 -37.4268 15.611 0.896205 1.86551 7.81852 -2.10899 2.27364 -4.25261 -2.4818 -2.27752 
-3.34722 91.2037 3.42013 -85.7646 -15.8079 -89.7187 -168.018 2.4129 102.239 -40.9618 4.06406 2.11776 42.3908 -10.7541 -4.41511 35.5014 5.19412 17.0116 178.216 31.9169 95.8719 -43.1265 1.30546 -2.00516 72.2104 -5.5659 -2.78725 26.7977 0.144157 -2.97953 -1.30016 7.45369 -89.97 11.9737 -2.5709 0.338679 0.305203 -2.55351 0.451569 -22.2502 -2.55377 -0.45016 -2.23756 -2.55378 -0.450172 94.2071 -55.6459 -93.5226 21.2239 -3.92766 12.3594 -13.5403 -30.3054 -43.0875 -1.59064 -0.687738 4.96479 -104.854 -51.1824 57.567 -16.0999 6.09434 6.15361 0.472315 0.76235 -32.8534 14.0881 0.698201 1.06746 7.17808 -1.03669 1.62414 -4.61798 -1.2969 -1.65716 
-10.0706 92.0911 3.91831 -86.6464 -10.7321 -89.6249 -168.42 10.3718 100.181 -54.1564 11.8398 0.729913 46.7876 -7.46193 -1.55197 36.9254 6.64158 14.921 179.657 25.3179 97.7609 -41.0271 -0.863585 -3.00875 75.3987 -6.75436 -3.19236 27.3887 0.0450761 -1.49842 -0.851663 7.55759 -89.9508 11.7618 -1.67061 0.27462 0.0919095 -1.6569 0.347894 -22.4518 -1.6759 -0.240316 -2.43914 -1.6759 -0.240321 93.2964 -54.6055 -94.9986 22.7544 -5.42576 10.8479 -14.9491 -31.1104 -45.9175 -0.640123 -0.663082 5.42742 -105.483 -52.3962 57.206 -15.9656 6.49188 5.9528 0.99078 2.73208 -30.5129 14.6059 0.841634 1.8693 6.48803 -0.584609 2.08463 -4.13739 -0.927004 -1.64127 
-16.871 93.6904 4.5153 -86.2414 -5.78653 -90.667 -168.397 18.2319 95.2174 -56.0065 16.0721 -1.42136 50.4487 -4.76788 0.142866 42.1922 11.9405 14.7144 179.448 18.1757 96.8683 -35.8028 -6.08489 -3.80857 75.8775 -6.77564 -3.16629 29.3532 0.046269 -0.280774 -0.376735 7.53777 -89.8182 11.7993 -0.663696 0.432956 0.128406 -0.644002 0.461742 -22.408 -0.763117 0.213472 -2.39534 -0.763135 0.213461 93.0231 -53.4538 -95.5856 23.4017 -6.65978 8.6791 -16.2499 -30.8683 -48.831 -1.62302 -0.704389 4.6761 -105.429 -53.2153 57.6249 -17.5916 6.94866 6.45173 1.21402 3.42289 -30.2747 14.596 0.935837 2.50024 5.19391 -0.409563 2.92209 -3.4032 -0.875139 -1.84992 
-23.5581 95.1289 5.06104 -86.3654 -2.34552 -91.2572 -169.996 24.0676 91.6192 -48.5543 14.7668 -1.92887 55.263 -1.36775 2.10919 44.7467 14.1792 12.5807 178.629 10.7865 95.8977 -29.9115 -9.64662 -3.90035 73.7758 -6.06886 -2.93931 32.7174 0.231768 -1.63419 -0.00620431 7.5585 -89.8114 11.7567 0.0762917 0.367921 0.0857119 0.0924391 0.364198 -22.449 -0.0377974 0.373845 -2.43633 -0.0378031 0.373837 92.9206 -52.6138 -95.8791 23.3279 -7.10823 7.80221 -17.0252 -28.3407 -52.247 -3.7209 -0.775384 4.32874 -105.088 -53.5041 58.2107 -20.1078 7.93185 7.69031 1.57536 4.14085 -31.121 13.4037 0.762748 1.78942 3.79268 -0.434642 3.61395 -2.43676 -0.986081 -2.18701 
-30.3216 95.4459 5.72767 -85.7759 1.00775 -91.7464 -171.868 27.6986 89.331 -33.3763 8.85545 -1.89224 58.7858 0.53655 -0.521898 43.5168 13.6015 17.1502 178.252 5.37959 94.991 -26.5738 -12.689 -4.55016 72.7793 -5.87777 -2.896 35.3025 0.353453 -3.7497 0.274727 7.54148 -89.7761 11.7897 0.651597 0.377379 0.118852 0.667595 0.348325 -22.4168 0.508066 0.55577 -2.40409 0.508065 0.555762 92.37 -51.3994 -96.9225 22.8373 -7.78306 6.29402 -16.4313 -25.9323 -54.6565 -5.95906 -0.814453 3.62333 -104.911 -54.1681 58.7228 -21.8292 8.35553 9.32915 1.6258 3.75912 -32.0459 11.2649 0.518381 0.705337 3.86903 0.158073 4.68772 -2.22349 -0.571882 -2.66572 
-37.6245 94.6465 6.41699 -85.0382 4.2128 -91.9939 -173.586 27.3694 88.9233 -10.8568 11.7368 -2.0362 57.6465 0.311585 3.38175 45.2567 15.45 17.3763 177.336 0.538161 93.9578 -25.0158 -13.2319 -4.90193 73.8626 -6.33637 -3.04308 37.0517 0.393635 -2.48287 0.481145 7.49555 -89.6836 11.8804 1.10575 0.512397 0.209809 1.12725 0.463226 -22.3272 0.900632 0.821047 -2.31459 0.900636 0.82104 92.1274 -51.1788 -97.3308 21.4961 -8.02064 4.47689 -18.3511 -24.6925 -58.1031 -5.87601 -0.811197 3.58398 -105.152 -54.3837 58.4823 -22.9388 8.83171 11.0296 2.23943 4.80033 -32.5112 9.70322 0.359726 -0.114927 5.23628 0.926033 5.10091 -3.57436 0.0967698 -2.47441 
